<svg width="162" height="65" viewBox="0 0 162 65" fill="none" xmlns="http://www.w3.org/2000/svg">
<path d="M15.5757 6.328C15.1464 5.80533 14.6144 5.404 13.9797 5.124C13.3637 4.844 12.645 4.704 11.8237 4.704C11.0024 4.704 10.237 4.86267 9.5277 5.18C8.83704 5.49733 8.23037 5.94533 7.7077 6.524C7.2037 7.084 6.80237 7.756 6.5037 8.54C6.2237 9.324 6.0837 10.1733 6.0837 11.088C6.0837 12.0213 6.2237 12.88 6.5037 13.664C6.80237 14.4293 7.2037 15.1013 7.7077 15.68C8.2117 16.24 8.7997 16.6787 9.4717 16.996C10.1624 17.3133 10.8997 17.472 11.6837 17.472C12.5797 17.472 13.373 17.2853 14.0637 16.912C14.7544 16.5387 15.3237 16.016 15.7717 15.344L19.4117 18.06C18.5717 19.236 17.5077 20.104 16.2197 20.664C14.9317 21.224 13.6064 21.504 12.2437 21.504C10.6944 21.504 9.26637 21.2613 7.9597 20.776C6.65304 20.2907 5.5237 19.6 4.5717 18.704C3.6197 17.7893 2.87304 16.688 2.3317 15.4C1.80904 14.112 1.5477 12.6747 1.5477 11.088C1.5477 9.50133 1.80904 8.064 2.3317 6.776C2.87304 5.488 3.6197 4.396 4.5717 3.5C5.5237 2.58533 6.65304 1.88533 7.9597 1.4C9.26637 0.914666 10.6944 0.672 12.2437 0.672C12.8037 0.672 13.3824 0.728 13.9797 0.839999C14.5957 0.933332 15.193 1.092 15.7717 1.316C16.369 1.54 16.9384 1.83867 17.4797 2.212C18.021 2.58533 18.5064 3.04267 18.9357 3.584L15.5757 6.328ZM38.4957 13.356C38.4957 14.532 38.3183 15.6147 37.9637 16.604C37.609 17.5933 37.077 18.452 36.3677 19.18C35.677 19.908 34.809 20.4773 33.7637 20.888C32.7183 21.2987 31.5143 21.504 30.1517 21.504C28.7703 21.504 27.557 21.2987 26.5117 20.888C25.4663 20.4773 24.589 19.908 23.8797 19.18C23.189 18.452 22.6663 17.5933 22.3117 16.604C21.957 15.6147 21.7797 14.532 21.7797 13.356V1.176H26.1477V13.188C26.1477 13.804 26.241 14.3733 26.4277 14.896C26.633 15.4187 26.913 15.876 27.2677 16.268C27.6223 16.6413 28.0423 16.94 28.5277 17.164C29.0317 17.3693 29.573 17.472 30.1517 17.472C30.7303 17.472 31.2623 17.3693 31.7477 17.164C32.233 16.94 32.653 16.6413 33.0077 16.268C33.3623 15.876 33.633 15.4187 33.8197 14.896C34.025 14.3733 34.1277 13.804 34.1277 13.188V1.176H38.4957V13.356ZM42.7016 1.176H47.0696V16.968H55.1616V21H42.7016V1.176ZM58.8383 5.04H53.1823V1.176H68.8623V5.04H63.2063V21H58.8383V5.04ZM71.0245 1.176H75.3925V21H71.0245V1.176ZM77.4056 1.176H82.3896L87.2896 14.168H87.3456L92.3296 1.176H97.0056L88.8296 21H85.3296L77.4056 1.176ZM104.073 1.176H107.685L116.309 21H111.381L109.673 16.8H101.973L100.321 21H95.5052L104.073 1.176ZM105.753 6.944L103.345 13.104H108.189L105.753 6.944ZM130.424 5.04H124.768V1.176H140.448V5.04H134.792V21H130.424V5.04ZM159.382 13.356C159.382 14.532 159.205 15.6147 158.85 16.604C158.496 17.5933 157.964 18.452 157.254 19.18C156.564 19.908 155.696 20.4773 154.65 20.888C153.605 21.2987 152.401 21.504 151.038 21.504C149.657 21.504 148.444 21.2987 147.398 20.888C146.353 20.4773 145.476 19.908 144.766 19.18C144.076 18.452 143.553 17.5933 143.198 16.604C142.844 15.6147 142.666 14.532 142.666 13.356V1.176H147.034V13.188C147.034 13.804 147.128 14.3733 147.314 14.896C147.52 15.4187 147.8 15.876 148.154 16.268C148.509 16.6413 148.929 16.94 149.414 17.164C149.918 17.3693 150.46 17.472 151.038 17.472C151.617 17.472 152.149 17.3693 152.634 17.164C153.12 16.94 153.54 16.6413 153.894 16.268C154.249 15.876 154.52 15.4187 154.706 14.896C154.912 14.3733 155.014 13.804 155.014 13.188V1.176H159.382V13.356Z" fill="#2A8892"/>
<path d="M0.9658 32.1488H11.9162L19.4794 53.5856H19.5722L27.1818 32.1488H38.0858V65H30.8474V39.8048H30.7546L22.1242 65H16.6026L8.297 39.8048H8.2042V65H0.9658V32.1488ZM45.0614 32.1488H67.3798V38.8304H52.2998V44.9552H66.5446V51.6368H52.2998V58.3184H68.215V65H45.0614V32.1488ZM74.0095 32.1488H83.8463L97.8127 54.9776H97.9055V32.1488H105.144V65H95.6783L81.3407 41.6144H81.2479V65H74.0095V32.1488ZM118.202 38.552H108.829V32.1488H134.813V38.552H125.441V65H118.202V38.552ZM138.768 32.1488H161.086V38.8304H146.006V44.9552H160.251V51.6368H146.006V58.3184H161.921V65H138.768V32.1488Z" fill="#088891"/>
</svg>
