<svg width="301" height="121" viewBox="0 0 301 121" fill="none" xmlns="http://www.w3.org/2000/svg">
<path d="M10.3078 18.4C10.3078 14.9333 11.0578 11.85 12.5578 9.15C14.0578 6.41667 16.1411 4.3 18.8078 2.8C21.5078 1.26666 24.5578 0.499998 27.9578 0.499998C32.1245 0.499998 35.6911 1.6 38.6578 3.8C41.6245 6 43.6078 9 44.6078 12.8H35.2078C34.5078 11.3333 33.5078 10.2167 32.2078 9.45C30.9411 8.68333 29.4911 8.3 27.8578 8.3C25.2245 8.3 23.0911 9.21667 21.4578 11.05C19.8245 12.8833 19.0078 15.3333 19.0078 18.4C19.0078 21.4667 19.8245 23.9167 21.4578 25.75C23.0911 27.5833 25.2245 28.5 27.8578 28.5C29.4911 28.5 30.9411 28.1167 32.2078 27.35C33.5078 26.5833 34.5078 25.4667 35.2078 24H44.6078C43.6078 27.8 41.6245 30.8 38.6578 33C35.6911 35.1667 32.1245 36.25 27.9578 36.25C24.5578 36.25 21.5078 35.5 18.8078 34C16.1411 32.4667 14.0578 30.35 12.5578 27.65C11.0578 24.95 10.3078 21.8667 10.3078 18.4ZM57.2937 0.899999V21.9C57.2937 24 57.8104 25.6167 58.8437 26.75C59.8771 27.8833 61.3937 28.45 63.3937 28.45C65.3937 28.45 66.9271 27.8833 67.9937 26.75C69.0604 25.6167 69.5937 24 69.5937 21.9V0.899999H78.1437V21.85C78.1437 24.9833 77.4771 27.6333 76.1437 29.8C74.8104 31.9667 73.0104 33.6 70.7437 34.7C68.5104 35.8 66.0104 36.35 63.2437 36.35C60.4771 36.35 57.9937 35.8167 55.7937 34.75C53.6271 33.65 51.9104 32.0167 50.6437 29.85C49.3771 27.65 48.7437 24.9833 48.7437 21.85V0.899999H57.2937ZM91.7476 29.4H102.948V36H83.1976V0.899999H91.7476V29.4ZM131.326 0.899999V7.75H122.026V36H113.476V7.75H104.176V0.899999H131.326ZM143.217 0.899999V36H134.667V0.899999H143.217ZM181.413 0.899999L168.963 36H158.263L145.813 0.899999H154.913L163.613 27.4L172.363 0.899999H181.413ZM205.886 29.8H192.786L190.686 36H181.736L194.436 0.899999H204.336L217.036 36H207.986L205.886 29.8ZM203.686 23.2L199.336 10.35L195.036 23.2H203.686ZM254.847 0.899999V7.75H245.547V36H236.997V7.75H227.697V0.899999H254.847ZM266.588 0.899999V21.9C266.588 24 267.105 25.6167 268.138 26.75C269.172 27.8833 270.688 28.45 272.688 28.45C274.688 28.45 276.222 27.8833 277.288 26.75C278.355 25.6167 278.888 24 278.888 21.9V0.899999H287.438V21.85C287.438 24.9833 286.772 27.6333 285.438 29.8C284.105 31.9667 282.305 33.6 280.038 34.7C277.805 35.8 275.305 36.35 272.538 36.35C269.772 36.35 267.288 35.8167 265.088 34.75C262.922 33.65 261.205 32.0167 259.938 29.85C258.672 27.65 258.038 24.9833 258.038 21.85V0.899999H266.588ZM75.7433 54.31V121H59.4983V81.005L44.5833 121H31.4733L16.4633 80.91V121H0.218263V54.31H19.4083L38.1233 100.48L56.6483 54.31H75.7433ZM101.865 67.325V80.815H123.62V93.355H101.865V107.985H126.47V121H85.6203V54.31H126.47V67.325H101.865ZM194.872 121H178.627L151.457 79.865V121H135.212V54.31H151.457L178.627 95.635V54.31H194.872V121ZM252.817 54.31V67.325H235.147V121H218.902V67.325H201.232V54.31H252.817ZM275.41 67.325V80.815H297.165V93.355H275.41V107.985H300.015V121H259.165V54.31H300.015V67.325H275.41Z" fill="white"/>
</svg>
